{"asset":{"version":"2.0","generator":"babylon.js glTF exporter for 3ds max 2019 v1.3.33"},"scene":0,"scenes":[{"nodes":[0,1,2,3],"extensions":{}}],"nodes":[{"mesh":0,"translation":[0.0,0.0,0.0],"rotation":[0.0,-7.54979E-08,1.0,0.0],"scale":[0.977126658,-0.977126658,0.977126658],"name":"sphere_controller"},{"mesh":1,"translation":[-0.0229434557,-1.020067,-2.21389],"rotation":[0.0,-7.54979E-08,1.0,0.0],"scale":[0.977126658,-0.977126658,0.977126658],"name":"gachette"},{"mesh":2,"translation":[-0.080341585,-2.891314,2.97181749],"rotation":[0.0,-7.54979E-08,1.0,0.0],"scale":[0.977126658,-0.977126658,0.977126658],"name":"bouton_lateral"},{"translation":[0.0,0.0,0.0],"rotation":[0.0,0.0,0.0,1.0],"scale":[1.0,1.0,1.0],"name":"Default light"}],"meshes":[{"primitives":[{"attributes":{"POSITION":1,"NORMAL":2,"TEXCOORD_0":3},"indices":0,"mode":4,"material":0}],"name":"sphere_controller"},{"primitives":[{"attributes":{"POSITION":5,"NORMAL":6,"TEXCOORD_0":7},"indices":4,"mode":4,"material":0}],"name":"gachette"},{"primitives":[{"attributes":{"POSITION":9,"NORMAL":10,"TEXCOORD_0":11},"indices":8,"mode":4,"material":0}],"name":"bouton_lateral"}],"accessors":[{"bufferView":0,"componentType":5123,"count":6234,"type":"SCALAR","name":"accessorIndices"},{"bufferView":1,"componentType":5126,"count":6234,"max":[7.83967447,1.69824827,7.735255],"min":[-4.20549726,-9.292652,-3.52327347],"type":"VEC3","name":"accessorPositions"},{"bufferView":1,"byteOffset":74808,"componentType":5126,"count":6234,"type":"VEC3","name":"accessorNormals"},{"bufferView":2,"componentType":5126,"count":6234,"type":"VEC2","name":"accessorUVs"},{"bufferView":0,"byteOffset":12468,"componentType":5123,"count":375,"type":"SCALAR","name":"accessorIndices"},{"bufferView":1,"byteOffset":149616,"componentType":5126,"count":375,"max":[1.5162102,0.5443214,1.29970682],"min":[-1.5162102,-2.582733,-0.916650534],"type":"VEC3","name":"accessorPositions"},{"bufferView":1,"byteOffset":154116,"componentType":5126,"count":375,"type":"VEC3","name":"accessorNormals"},{"bufferView":2,"byteOffset":49872,"componentType":5126,"count":375,"type":"VEC2","name":"accessorUVs"},{"bufferView":0,"byteOffset":13220,"componentType":5123,"count":327,"type":"SCALAR","name":"accessorIndices"},{"bufferView":1,"byteOffset":158616,"componentType":5126,"count":327,"max":[0.8803861,0.7873421,0.7126076],"min":[-0.8803861,-1.29256749,-2.19591665],"type":"VEC3","name":"accessorPositions"},{"bufferView":1,"byteOffset":162540,"componentType":5126,"count":327,"type":"VEC3","name":"accessorNormals"},{"bufferView":2,"byteOffset":52872,"componentType":5126,"count":327,"type":"VEC2","name":"accessorUVs"},{"bufferView":3,"componentType":5126,"count":6,"max":[0.2],"min":[0.0],"type":"SCALAR","name":"accessorAnimationInput"},{"bufferView":4,"componentType":5126,"count":6,"type":"VEC3","name":"accessorAnimationPositions"},{"bufferView":3,"byteOffset":24,"componentType":5126,"count":6,"max":[0.2],"min":[0.0],"type":"SCALAR","name":"accessorAnimationInput"},{"bufferView":5,"componentType":5126,"count":6,"type":"VEC4","name":"accessorAnimationRotations"},{"bufferView":3,"byteOffset":48,"componentType":5126,"count":6,"max":[0.2],"min":[0.0],"type":"SCALAR","name":"accessorAnimationInput"},{"bufferView":4,"byteOffset":72,"componentType":5126,"count":6,"type":"VEC3","name":"accessorAnimationScales"},{"bufferView":3,"byteOffset":72,"componentType":5126,"count":6,"max":[0.2],"min":[0.0],"type":"SCALAR","name":"accessorAnimationInput"},{"bufferView":4,"byteOffset":144,"componentType":5126,"count":6,"type":"VEC3","name":"accessorAnimationPositions"},{"bufferView":3,"byteOffset":96,"componentType":5126,"count":6,"max":[0.2],"min":[0.0],"type":"SCALAR","name":"accessorAnimationInput"},{"bufferView":5,"byteOffset":96,"componentType":5126,"count":6,"type":"VEC4","name":"accessorAnimationRotations"},{"bufferView":3,"byteOffset":120,"componentType":5126,"count":6,"max":[0.2],"min":[0.0],"type":"SCALAR","name":"accessorAnimationInput"},{"bufferView":4,"byteOffset":216,"componentType":5126,"count":6,"type":"VEC3","name":"accessorAnimationScales"},{"bufferView":3,"byteOffset":144,"componentType":5126,"count":11,"max":[0.4],"min":[0.0],"type":"SCALAR","name":"accessorAnimationInput"},{"bufferView":4,"byteOffset":288,"componentType":5126,"count":11,"type":"VEC3","name":"accessorAnimationPositions"},{"bufferView":3,"byteOffset":188,"componentType":5126,"count":11,"max":[0.4],"min":[0.0],"type":"SCALAR","name":"accessorAnimationInput"},{"bufferView":5,"byteOffset":192,"componentType":5126,"count":11,"type":"VEC4","name":"accessorAnimationRotations"},{"bufferView":3,"byteOffset":232,"componentType":5126,"count":11,"max":[0.4],"min":[0.0],"type":"SCALAR","name":"accessorAnimationInput"},{"bufferView":4,"byteOffset":420,"componentType":5126,"count":11,"type":"VEC3","name":"accessorAnimationScales"},{"bufferView":3,"byteOffset":276,"componentType":5126,"count":11,"max":[0.4],"min":[0.0],"type":"SCALAR","name":"accessorAnimationInput"},{"bufferView":4,"byteOffset":552,"componentType":5126,"count":11,"type":"VEC3","name":"accessorAnimationPositions"},{"bufferView":3,"byteOffset":320,"componentType":5126,"count":11,"max":[0.4],"min":[0.0],"type":"SCALAR","name":"accessorAnimationInput"},{"bufferView":5,"byteOffset":368,"componentType":5126,"count":11,"type":"VEC4","name":"accessorAnimationRotations"},{"bufferView":3,"byteOffset":364,"componentType":5126,"count":11,"max":[0.4],"min":[0.0],"type":"SCALAR","name":"accessorAnimationInput"},{"bufferView":4,"byteOffset":684,"componentType":5126,"count":11,"type":"VEC3","name":"accessorAnimationScales"},{"bufferView":3,"byteOffset":408,"componentType":5126,"count":11,"max":[0.4],"min":[0.0],"type":"SCALAR","name":"accessorAnimationInput"},{"bufferView":4,"byteOffset":816,"componentType":5126,"count":11,"type":"VEC3","name":"accessorAnimationPositions"},{"bufferView":3,"byteOffset":452,"componentType":5126,"count":11,"max":[0.4],"min":[0.0],"type":"SCALAR","name":"accessorAnimationInput"},{"bufferView":5,"byteOffset":544,"componentType":5126,"count":11,"type":"VEC4","name":"accessorAnimationRotations"},{"bufferView":3,"byteOffset":496,"componentType":5126,"count":11,"max":[0.4],"min":[0.0],"type":"SCALAR","name":"accessorAnimationInput"},{"bufferView":4,"byteOffset":948,"componentType":5126,"count":11,"type":"VEC3","name":"accessorAnimationScales"},{"bufferView":3,"byteOffset":540,"componentType":5126,"count":11,"max":[0.4],"min":[0.0],"type":"SCALAR","name":"accessorAnimationInput"},{"bufferView":4,"byteOffset":1080,"componentType":5126,"count":11,"type":"VEC3","name":"accessorAnimationPositions"},{"bufferView":3,"byteOffset":584,"componentType":5126,"count":11,"max":[0.4],"min":[0.0],"type":"SCALAR","name":"accessorAnimationInput"},{"bufferView":5,"byteOffset":720,"componentType":5126,"count":11,"type":"VEC4","name":"accessorAnimationRotations"},{"bufferView":3,"byteOffset":628,"componentType":5126,"count":11,"max":[0.4],"min":[0.0],"type":"SCALAR","name":"accessorAnimationInput"},{"bufferView":4,"byteOffset":1212,"componentType":5126,"count":11,"type":"VEC3","name":"accessorAnimationScales"}],"bufferViews":[{"buffer":0,"byteLength":13876,"name":"bufferViewScalar"},{"buffer":0,"byteOffset":13876,"byteLength":166464,"byteStride":12,"name":"bufferViewFloatVec3"},{"buffer":0,"byteOffset":180340,"byteLength":55488,"byteStride":8,"name":"bufferViewFloatVec2"},{"buffer":0,"byteOffset":235828,"byteLength":672,"name":"bufferViewAnimationFloatScalar"},{"buffer":0,"byteOffset":236500,"byteLength":1344,"name":"bufferViewAnimationFloatVec3"},{"buffer":0,"byteOffset":237844,"byteLength":896,"name":"bufferViewAnimationFloatVec4"}],"buffers":[{"uri":"manette.bin","byteLength":238740}],"materials":[{"pbrMetallicRoughness":{"baseColorFactor":[1.0,1.0,1.0,1.0],"baseColorTexture":{"index":0,"texCoord":0},"metallicFactor":0.0,"roughnessFactor":0.99},"emissiveFactor":[0.0,0.0,0.0],"alphaMode":"OPAQUE","name":"sphere_controller"}],"textures":[{"sampler":0,"source":0,"name":"sphere_controller_color.jpg"}],"images":[{"uri":"sphere_controller_color.jpg"}],"samplers":[{"magFilter":9729,"minFilter":9987,"wrapS":10497,"wrapT":10497}],"animations":[{"channels":[{"sampler":0,"target":{"node":1,"path":"translation"}},{"sampler":1,"target":{"node":1,"path":"rotation"}},{"sampler":2,"target":{"node":1,"path":"scale"}},{"sampler":3,"target":{"node":2,"path":"translation"}},{"sampler":4,"target":{"node":2,"path":"rotation"}},{"sampler":5,"target":{"node":2,"path":"scale"}}],"samplers":[{"input":12,"interpolation":"LINEAR","output":13},{"input":14,"interpolation":"LINEAR","output":15},{"input":16,"interpolation":"LINEAR","output":17},{"input":18,"interpolation":"LINEAR","output":19},{"input":20,"interpolation":"LINEAR","output":21},{"input":22,"interpolation":"LINEAR","output":23}],"name":"main_manette_base"},{"channels":[{"sampler":0,"target":{"node":1,"path":"translation"}},{"sampler":1,"target":{"node":1,"path":"rotation"}},{"sampler":2,"target":{"node":1,"path":"scale"}},{"sampler":3,"target":{"node":2,"path":"translation"}},{"sampler":4,"target":{"node":2,"path":"rotation"}},{"sampler":5,"target":{"node":2,"path":"scale"}}],"samplers":[{"input":24,"interpolation":"LINEAR","output":25},{"input":26,"interpolation":"LINEAR","output":27},{"input":28,"interpolation":"LINEAR","output":29},{"input":30,"interpolation":"LINEAR","output":31},{"input":32,"interpolation":"LINEAR","output":33},{"input":34,"interpolation":"LINEAR","output":35}],"name":"main_gachette"},{"channels":[{"sampler":0,"target":{"node":1,"path":"translation"}},{"sampler":1,"target":{"node":1,"path":"rotation"}},{"sampler":2,"target":{"node":1,"path":"scale"}},{"sampler":3,"target":{"node":2,"path":"translation"}},{"sampler":4,"target":{"node":2,"path":"rotation"}},{"sampler":5,"target":{"node":2,"path":"scale"}}],"samplers":[{"input":36,"interpolation":"LINEAR","output":37},{"input":38,"interpolation":"LINEAR","output":39},{"input":40,"interpolation":"LINEAR","output":41},{"input":42,"interpolation":"LINEAR","output":43},{"input":44,"interpolation":"LINEAR","output":45},{"input":46,"interpolation":"LINEAR","output":47}],"name":"main_bouton"}]}